<svg xmlns="http://www.w3.org/2000/svg" width="1080" height="430" viewBox="0 0 1080 430">
<style>.heading{font:700 20px -apple-system,BlinkMacSystemFont,"Segoe UI",sans-serif;fill:#111827}.axis{font:12px -apple-system,BlinkMacSystemFont,"Segoe UI",sans-serif;fill:#475569}.legend{font:11px -apple-system,BlinkMacSystemFont,"Segoe UI",sans-serif;fill:#334155}</style>
<rect width="1080" height="430" fill="#ffffff"/>
<text x="28" y="34" class="heading">Demo classification performance</text>
<line x1="70" y1="328" x2="995" y2="328" stroke="#334155"/>
<line x1="70" y1="78" x2="70" y2="328" stroke="#334155"/>
<line x1="65" y1="328.0" x2="995" y2="328.0" stroke="#e2e8f0"/>
<text x="28" y="332.0" class="axis">0.00</text>
<line x1="65" y1="265.5" x2="995" y2="265.5" stroke="#e2e8f0"/>
<text x="28" y="269.5" class="axis">0.25</text>
<line x1="65" y1="203.0" x2="995" y2="203.0" stroke="#e2e8f0"/>
<text x="28" y="207.0" class="axis">0.50</text>
<line x1="65" y1="140.5" x2="995" y2="140.5" stroke="#e2e8f0"/>
<text x="28" y="144.5" class="axis">0.75</text>
<line x1="65" y1="78.0" x2="995" y2="78.0" stroke="#e2e8f0"/>
<text x="28" y="82.0" class="axis">1.00</text>
<text x="92" y="356" class="axis">accuracy</text>
<rect x="92" y="105.8" width="18" height="222.2" fill="#2563eb"/>
<rect x="112" y="105.8" width="18" height="222.2" fill="#0f766e"/>
<rect x="132" y="175.2" width="18" height="152.8" fill="#7c3aed"/>
<rect x="152" y="154.4" width="18" height="173.6" fill="#f97316"/>
<rect x="172" y="105.8" width="18" height="222.2" fill="#be123c"/>
<rect x="192" y="119.7" width="18" height="208.3" fill="#334155"/>
<text x="277" y="356" class="axis">sensitivity</text>
<rect x="277" y="105.8" width="18" height="222.2" fill="#2563eb"/>
<rect x="297" y="105.8" width="18" height="222.2" fill="#0f766e"/>
<rect x="317" y="147.4" width="18" height="180.6" fill="#7c3aed"/>
<rect x="337" y="133.6" width="18" height="194.4" fill="#f97316"/>
<rect x="357" y="91.9" width="18" height="236.1" fill="#be123c"/>
<rect x="377" y="105.8" width="18" height="222.2" fill="#334155"/>
<text x="462" y="356" class="axis">specificity</text>
<rect x="462" y="105.8" width="18" height="222.2" fill="#2563eb"/>
<rect x="482" y="105.8" width="18" height="222.2" fill="#0f766e"/>
<rect x="502" y="203.0" width="18" height="125.0" fill="#7c3aed"/>
<rect x="522" y="175.2" width="18" height="152.8" fill="#f97316"/>
<rect x="542" y="119.7" width="18" height="208.3" fill="#be123c"/>
<rect x="562" y="133.6" width="18" height="194.4" fill="#334155"/>
<text x="647" y="356" class="axis">auc</text>
<rect x="647" y="85.7" width="18" height="242.3" fill="#2563eb"/>
<rect x="667" y="87.3" width="18" height="240.7" fill="#0f766e"/>
<rect x="687" y="163.6" width="18" height="164.4" fill="#7c3aed"/>
<rect x="707" y="166.7" width="18" height="161.3" fill="#f97316"/>
<rect x="727" y="85.7" width="18" height="242.3" fill="#be123c"/>
<rect x="747" y="85.7" width="18" height="242.3" fill="#334155"/>
<text x="832" y="356" class="axis">f1</text>
<rect x="832" y="105.8" width="18" height="222.2" fill="#2563eb"/>
<rect x="852" y="105.8" width="18" height="222.2" fill="#0f766e"/>
<rect x="872" y="165.5" width="18" height="162.5" fill="#7c3aed"/>
<rect x="892" y="148.5" width="18" height="179.5" fill="#f97316"/>
<rect x="912" y="104.3" width="18" height="223.7" fill="#be123c"/>
<rect x="932" y="117.5" width="18" height="210.5" fill="#334155"/>
<rect x="70" y="353" width="12" height="12" fill="#2563eb"/>
<text x="88" y="363" class="legend">structural/logistic</text>
<rect x="380" y="353" width="12" height="12" fill="#0f766e"/>
<text x="398" y="363" class="legend">structural/centroid</text>
<rect x="690" y="353" width="12" height="12" fill="#7c3aed"/>
<text x="708" y="363" class="legend">network/logistic</text>
<rect x="70" y="377" width="12" height="12" fill="#f97316"/>
<text x="88" y="387" class="legend">network/centroid</text>
<rect x="380" y="377" width="12" height="12" fill="#be123c"/>
<text x="398" y="387" class="legend">combined/logistic</text>
<rect x="690" y="377" width="12" height="12" fill="#334155"/>
<text x="708" y="387" class="legend">combined/centroid</text>
</svg>