<svg xmlns="http://www.w3.org/2000/svg" width="1080" height="460" viewBox="0 0 1080 460">
<style>.heading{font:700 20px -apple-system,BlinkMacSystemFont,"Segoe UI",sans-serif;fill:#111827}.axis{font:12px -apple-system,BlinkMacSystemFont,"Segoe UI",sans-serif;fill:#475569}.legend{font:11px -apple-system,BlinkMacSystemFont,"Segoe UI",sans-serif;fill:#334155}.note{font:12px -apple-system,BlinkMacSystemFont,"Segoe UI",sans-serif;fill:#64748b}</style>
<rect width="1080" height="460" fill="#ffffff"/>
<text x="28" y="34" class="heading">5-fold cross-validated demo performance</text>
<line x1="70" y1="340" x2="995" y2="340" stroke="#334155"/>
<line x1="70" y1="80" x2="70" y2="340" stroke="#334155"/>
<line x1="65" y1="340.0" x2="995" y2="340.0" stroke="#e2e8f0"/>
<text x="28" y="344.0" class="axis">0.00</text>
<line x1="65" y1="275.0" x2="995" y2="275.0" stroke="#e2e8f0"/>
<text x="28" y="279.0" class="axis">0.25</text>
<line x1="65" y1="210.0" x2="995" y2="210.0" stroke="#e2e8f0"/>
<text x="28" y="214.0" class="axis">0.50</text>
<line x1="65" y1="145.0" x2="995" y2="145.0" stroke="#e2e8f0"/>
<text x="28" y="149.0" class="axis">0.75</text>
<line x1="65" y1="80.0" x2="995" y2="80.0" stroke="#e2e8f0"/>
<text x="28" y="84.0" class="axis">1.00</text>
<text x="92" y="368" class="axis">accuracy</text>
<rect x="92" y="91.6" width="18" height="248.4" fill="#2563eb"/>
<line x1="101.0" y1="87.6" x2="101.0" y2="95.5" stroke="#111827" stroke-width="1"/>
<rect x="112" y="91.6" width="18" height="248.4" fill="#0f766e"/>
<line x1="121.0" y1="87.6" x2="121.0" y2="95.5" stroke="#111827" stroke-width="1"/>
<rect x="132" y="168.1" width="18" height="171.9" fill="#7c3aed"/>
<line x1="141.0" y1="147.4" x2="141.0" y2="188.8" stroke="#111827" stroke-width="1"/>
<rect x="152" y="176.8" width="18" height="163.2" fill="#f97316"/>
<line x1="161.0" y1="156.0" x2="161.0" y2="197.6" stroke="#111827" stroke-width="1"/>
<rect x="172" y="91.6" width="18" height="248.4" fill="#be123c"/>
<line x1="181.0" y1="87.6" x2="181.0" y2="95.5" stroke="#111827" stroke-width="1"/>
<rect x="192" y="91.6" width="18" height="248.4" fill="#334155"/>
<line x1="201.0" y1="85.1" x2="201.0" y2="98.0" stroke="#111827" stroke-width="1"/>
<text x="277" y="368" class="axis">sensitivity</text>
<rect x="277" y="85.8" width="18" height="254.2" fill="#2563eb"/>
<line x1="286.0" y1="80.0" x2="286.0" y2="93.7" stroke="#111827" stroke-width="1"/>
<rect x="297" y="88.7" width="18" height="251.3" fill="#0f766e"/>
<line x1="306.0" y1="80.8" x2="306.0" y2="96.6" stroke="#111827" stroke-width="1"/>
<rect x="317" y="172.4" width="18" height="167.6" fill="#7c3aed"/>
<line x1="326.0" y1="140.8" x2="326.0" y2="204.1" stroke="#111827" stroke-width="1"/>
<rect x="337" y="189.8" width="18" height="150.2" fill="#f97316"/>
<line x1="346.0" y1="137.1" x2="346.0" y2="242.5" stroke="#111827" stroke-width="1"/>
<rect x="357" y="88.7" width="18" height="251.3" fill="#be123c"/>
<line x1="366.0" y1="80.8" x2="366.0" y2="96.6" stroke="#111827" stroke-width="1"/>
<rect x="377" y="88.7" width="18" height="251.3" fill="#334155"/>
<line x1="386.0" y1="80.8" x2="386.0" y2="96.6" stroke="#111827" stroke-width="1"/>
<text x="462" y="368" class="axis">specificity</text>
<rect x="462" y="97.3" width="18" height="242.7" fill="#2563eb"/>
<line x1="471.0" y1="81.5" x2="471.0" y2="113.2" stroke="#111827" stroke-width="1"/>
<rect x="482" y="94.4" width="18" height="245.6" fill="#0f766e"/>
<line x1="491.0" y1="80.0" x2="491.0" y2="108.9" stroke="#111827" stroke-width="1"/>
<rect x="502" y="163.8" width="18" height="176.2" fill="#7c3aed"/>
<line x1="511.0" y1="137.9" x2="511.0" y2="189.6" stroke="#111827" stroke-width="1"/>
<rect x="522" y="163.8" width="18" height="176.2" fill="#f97316"/>
<line x1="531.0" y1="126.4" x2="531.0" y2="201.2" stroke="#111827" stroke-width="1"/>
<rect x="542" y="94.4" width="18" height="245.6" fill="#be123c"/>
<line x1="551.0" y1="80.0" x2="551.0" y2="108.9" stroke="#111827" stroke-width="1"/>
<rect x="562" y="94.4" width="18" height="245.6" fill="#334155"/>
<line x1="571.0" y1="80.0" x2="571.0" y2="108.9" stroke="#111827" stroke-width="1"/>
<text x="647" y="368" class="axis">auc</text>
<rect x="647" y="82.1" width="18" height="257.9" fill="#2563eb"/>
<line x1="656.0" y1="80.5" x2="656.0" y2="83.7" stroke="#111827" stroke-width="1"/>
<rect x="667" y="80.5" width="18" height="259.5" fill="#0f766e"/>
<line x1="676.0" y1="80.0" x2="676.0" y2="81.6" stroke="#111827" stroke-width="1"/>
<rect x="687" y="156.7" width="18" height="183.3" fill="#7c3aed"/>
<line x1="696.0" y1="130.2" x2="696.0" y2="183.2" stroke="#111827" stroke-width="1"/>
<rect x="707" y="167.1" width="18" height="172.9" fill="#f97316"/>
<line x1="716.0" y1="134.9" x2="716.0" y2="199.4" stroke="#111827" stroke-width="1"/>
<rect x="727" y="81.4" width="18" height="258.6" fill="#be123c"/>
<line x1="736.0" y1="80.4" x2="736.0" y2="82.5" stroke="#111827" stroke-width="1"/>
<rect x="747" y="81.1" width="18" height="258.9" fill="#334155"/>
<line x1="756.0" y1="80.0" x2="756.0" y2="83.2" stroke="#111827" stroke-width="1"/>
<text x="832" y="368" class="axis">f1</text>
<rect x="832" y="91.2" width="18" height="248.8" fill="#2563eb"/>
<line x1="841.0" y1="87.8" x2="841.0" y2="94.6" stroke="#111827" stroke-width="1"/>
<rect x="852" y="91.3" width="18" height="248.7" fill="#0f766e"/>
<line x1="861.0" y1="87.8" x2="861.0" y2="94.9" stroke="#111827" stroke-width="1"/>
<rect x="872" y="170.2" width="18" height="169.8" fill="#7c3aed"/>
<line x1="881.0" y1="147.0" x2="881.0" y2="193.5" stroke="#111827" stroke-width="1"/>
<rect x="892" y="185.0" width="18" height="155.0" fill="#f97316"/>
<line x1="901.0" y1="154.2" x2="901.0" y2="215.9" stroke="#111827" stroke-width="1"/>
<rect x="912" y="91.3" width="18" height="248.7" fill="#be123c"/>
<line x1="921.0" y1="87.8" x2="921.0" y2="94.9" stroke="#111827" stroke-width="1"/>
<rect x="932" y="91.3" width="18" height="248.7" fill="#334155"/>
<line x1="941.0" y1="85.2" x2="941.0" y2="97.4" stroke="#111827" stroke-width="1"/>
<rect x="70" y="373" width="12" height="12" fill="#2563eb"/>
<text x="88" y="383" class="legend">structural/logistic</text>
<rect x="380" y="373" width="12" height="12" fill="#0f766e"/>
<text x="398" y="383" class="legend">structural/centroid</text>
<rect x="690" y="373" width="12" height="12" fill="#7c3aed"/>
<text x="708" y="383" class="legend">network/logistic</text>
<rect x="70" y="397" width="12" height="12" fill="#f97316"/>
<text x="88" y="407" class="legend">network/centroid</text>
<rect x="380" y="397" width="12" height="12" fill="#be123c"/>
<text x="398" y="407" class="legend">combined/logistic</text>
<rect x="690" y="397" width="12" height="12" fill="#334155"/>
<text x="708" y="407" class="legend">combined/centroid</text>
<text x="70" y="442" class="note">Bars show mean across folds; whiskers show sample standard deviation.</text>
</svg>