<svg xmlns="http://www.w3.org/2000/svg" width="980" height="360" viewBox="0 0 980 360">
<style>
  .heading { font: 700 20px -apple-system, BlinkMacSystemFont, "Segoe UI", sans-serif; fill: #111827; }
  .title { font: 650 14px -apple-system, BlinkMacSystemFont, "Segoe UI", sans-serif; fill: #334155; }
  .note { font: 12px -apple-system, BlinkMacSystemFont, "Segoe UI", sans-serif; fill: #64748b; }
</style>
<rect width="980" height="360" fill="#ffffff"/>
<text x="28" y="34" class="heading">Group mean cortical-thickness similarity matrices</text>
<text x="40" y="66" class="title">Control mean</text>
<rect x="40.00" y="78.00" width="24.20" height="24.20" fill="rgb(49,130,189)"/>
<rect x="64.00" y="78.00" width="24.20" height="24.20" fill="rgb(237,186,186)"/>
<rect x="88.00" y="78.00" width="24.20" height="24.20" fill="rgb(227,96,96)"/>
<rect x="112.00" y="78.00" width="24.20" height="24.20" fill="rgb(231,133,133)"/>
<rect x="136.00" y="78.00" width="24.20" height="24.20" fill="rgb(227,100,100)"/>
<rect x="160.00" y="78.00" width="24.20" height="24.20" fill="rgb(232,141,141)"/>
<rect x="184.00" y="78.00" width="24.20" height="24.20" fill="rgb(233,147,147)"/>
<rect x="208.00" y="78.00" width="24.20" height="24.20" fill="rgb(231,131,131)"/>
<rect x="232.00" y="78.00" width="24.20" height="24.20" fill="rgb(225,84,84)"/>
<rect x="256.00" y="78.00" width="24.20" height="24.20" fill="rgb(227,97,97)"/>
<rect x="40.00" y="102.00" width="24.20" height="24.20" fill="rgb(237,186,186)"/>
<rect x="64.00" y="102.00" width="24.20" height="24.20" fill="rgb(49,130,189)"/>
<rect x="88.00" y="102.00" width="24.20" height="24.20" fill="rgb(226,94,94)"/>
<rect x="112.00" y="102.00" width="24.20" height="24.20" fill="rgb(233,153,153)"/>
<rect x="136.00" y="102.00" width="24.20" height="24.20" fill="rgb(237,186,186)"/>
<rect x="160.00" y="102.00" width="24.20" height="24.20" fill="rgb(227,97,97)"/>
<rect x="184.00" y="102.00" width="24.20" height="24.20" fill="rgb(225,83,83)"/>
<rect x="208.00" y="102.00" width="24.20" height="24.20" fill="rgb(234,156,156)"/>
<rect x="232.00" y="102.00" width="24.20" height="24.20" fill="rgb(231,135,135)"/>
<rect x="256.00" y="102.00" width="24.20" height="24.20" fill="rgb(231,131,131)"/>
<rect x="40.00" y="126.00" width="24.20" height="24.20" fill="rgb(227,96,96)"/>
<rect x="64.00" y="126.00" width="24.20" height="24.20" fill="rgb(226,94,94)"/>
<rect x="88.00" y="126.00" width="24.20" height="24.20" fill="rgb(49,130,189)"/>
<rect x="112.00" y="126.00" width="24.20" height="24.20" fill="rgb(235,168,168)"/>
<rect x="136.00" y="126.00" width="24.20" height="24.20" fill="rgb(228,104,104)"/>
<rect x="160.00" y="126.00" width="24.20" height="24.20" fill="rgb(235,168,168)"/>
<rect x="184.00" y="126.00" width="24.20" height="24.20" fill="rgb(238,193,193)"/>
<rect x="208.00" y="126.00" width="24.20" height="24.20" fill="rgb(243,233,233)"/>
<rect x="232.00" y="126.00" width="24.20" height="24.20" fill="rgb(229,118,118)"/>
<rect x="256.00" y="126.00" width="24.20" height="24.20" fill="rgb(235,166,166)"/>
<rect x="40.00" y="150.00" width="24.20" height="24.20" fill="rgb(231,133,133)"/>
<rect x="64.00" y="150.00" width="24.20" height="24.20" fill="rgb(233,153,153)"/>
<rect x="88.00" y="150.00" width="24.20" height="24.20" fill="rgb(235,168,168)"/>
<rect x="112.00" y="150.00" width="24.20" height="24.20" fill="rgb(49,130,189)"/>
<rect x="136.00" y="150.00" width="24.20" height="24.20" fill="rgb(228,108,108)"/>
<rect x="160.00" y="150.00" width="24.20" height="24.20" fill="rgb(235,169,169)"/>
<rect x="184.00" y="150.00" width="24.20" height="24.20" fill="rgb(238,191,191)"/>
<rect x="208.00" y="150.00" width="24.20" height="24.20" fill="rgb(228,105,105)"/>
<rect x="232.00" y="150.00" width="24.20" height="24.20" fill="rgb(225,86,86)"/>
<rect x="256.00" y="150.00" width="24.20" height="24.20" fill="rgb(232,138,138)"/>
<rect x="40.00" y="174.00" width="24.20" height="24.20" fill="rgb(227,100,100)"/>
<rect x="64.00" y="174.00" width="24.20" height="24.20" fill="rgb(237,186,186)"/>
<rect x="88.00" y="174.00" width="24.20" height="24.20" fill="rgb(228,104,104)"/>
<rect x="112.00" y="174.00" width="24.20" height="24.20" fill="rgb(228,108,108)"/>
<rect x="136.00" y="174.00" width="24.20" height="24.20" fill="rgb(49,130,189)"/>
<rect x="160.00" y="174.00" width="24.20" height="24.20" fill="rgb(236,171,171)"/>
<rect x="184.00" y="174.00" width="24.20" height="24.20" fill="rgb(239,196,196)"/>
<rect x="208.00" y="174.00" width="24.20" height="24.20" fill="rgb(236,172,172)"/>
<rect x="232.00" y="174.00" width="24.20" height="24.20" fill="rgb(230,120,120)"/>
<rect x="256.00" y="174.00" width="24.20" height="24.20" fill="rgb(227,98,98)"/>
<rect x="40.00" y="198.00" width="24.20" height="24.20" fill="rgb(232,141,141)"/>
<rect x="64.00" y="198.00" width="24.20" height="24.20" fill="rgb(227,97,97)"/>
<rect x="88.00" y="198.00" width="24.20" height="24.20" fill="rgb(235,168,168)"/>
<rect x="112.00" y="198.00" width="24.20" height="24.20" fill="rgb(235,169,169)"/>
<rect x="136.00" y="198.00" width="24.20" height="24.20" fill="rgb(236,171,171)"/>
<rect x="160.00" y="198.00" width="24.20" height="24.20" fill="rgb(49,130,189)"/>
<rect x="184.00" y="198.00" width="24.20" height="24.20" fill="rgb(233,147,147)"/>
<rect x="208.00" y="198.00" width="24.20" height="24.20" fill="rgb(236,178,178)"/>
<rect x="232.00" y="198.00" width="24.20" height="24.20" fill="rgb(235,163,163)"/>
<rect x="256.00" y="198.00" width="24.20" height="24.20" fill="rgb(222,57,57)"/>
<rect x="40.00" y="222.00" width="24.20" height="24.20" fill="rgb(233,147,147)"/>
<rect x="64.00" y="222.00" width="24.20" height="24.20" fill="rgb(225,83,83)"/>
<rect x="88.00" y="222.00" width="24.20" height="24.20" fill="rgb(238,193,193)"/>
<rect x="112.00" y="222.00" width="24.20" height="24.20" fill="rgb(238,191,191)"/>
<rect x="136.00" y="222.00" width="24.20" height="24.20" fill="rgb(239,196,196)"/>
<rect x="160.00" y="222.00" width="24.20" height="24.20" fill="rgb(233,147,147)"/>
<rect x="184.00" y="222.00" width="24.20" height="24.20" fill="rgb(49,130,189)"/>
<rect x="208.00" y="222.00" width="24.20" height="24.20" fill="rgb(220,38,38)"/>
<rect x="232.00" y="222.00" width="24.20" height="24.20" fill="rgb(237,182,182)"/>
<rect x="256.00" y="222.00" width="24.20" height="24.20" fill="rgb(232,140,140)"/>
<rect x="40.00" y="246.00" width="24.20" height="24.20" fill="rgb(231,131,131)"/>
<rect x="64.00" y="246.00" width="24.20" height="24.20" fill="rgb(234,156,156)"/>
<rect x="88.00" y="246.00" width="24.20" height="24.20" fill="rgb(243,233,233)"/>
<rect x="112.00" y="246.00" width="24.20" height="24.20" fill="rgb(228,105,105)"/>
<rect x="136.00" y="246.00" width="24.20" height="24.20" fill="rgb(236,172,172)"/>
<rect x="160.00" y="246.00" width="24.20" height="24.20" fill="rgb(236,178,178)"/>
<rect x="184.00" y="246.00" width="24.20" height="24.20" fill="rgb(220,38,38)"/>
<rect x="208.00" y="246.00" width="24.20" height="24.20" fill="rgb(49,130,189)"/>
<rect x="232.00" y="246.00" width="24.20" height="24.20" fill="rgb(231,129,129)"/>
<rect x="256.00" y="246.00" width="24.20" height="24.20" fill="rgb(234,157,157)"/>
<rect x="40.00" y="270.00" width="24.20" height="24.20" fill="rgb(225,84,84)"/>
<rect x="64.00" y="270.00" width="24.20" height="24.20" fill="rgb(231,135,135)"/>
<rect x="88.00" y="270.00" width="24.20" height="24.20" fill="rgb(229,118,118)"/>
<rect x="112.00" y="270.00" width="24.20" height="24.20" fill="rgb(225,86,86)"/>
<rect x="136.00" y="270.00" width="24.20" height="24.20" fill="rgb(230,120,120)"/>
<rect x="160.00" y="270.00" width="24.20" height="24.20" fill="rgb(235,163,163)"/>
<rect x="184.00" y="270.00" width="24.20" height="24.20" fill="rgb(237,182,182)"/>
<rect x="208.00" y="270.00" width="24.20" height="24.20" fill="rgb(231,129,129)"/>
<rect x="232.00" y="270.00" width="24.20" height="24.20" fill="rgb(49,130,189)"/>
<rect x="256.00" y="270.00" width="24.20" height="24.20" fill="rgb(229,114,114)"/>
<rect x="40.00" y="294.00" width="24.20" height="24.20" fill="rgb(227,97,97)"/>
<rect x="64.00" y="294.00" width="24.20" height="24.20" fill="rgb(231,131,131)"/>
<rect x="88.00" y="294.00" width="24.20" height="24.20" fill="rgb(235,166,166)"/>
<rect x="112.00" y="294.00" width="24.20" height="24.20" fill="rgb(232,138,138)"/>
<rect x="136.00" y="294.00" width="24.20" height="24.20" fill="rgb(227,98,98)"/>
<rect x="160.00" y="294.00" width="24.20" height="24.20" fill="rgb(222,57,57)"/>
<rect x="184.00" y="294.00" width="24.20" height="24.20" fill="rgb(232,140,140)"/>
<rect x="208.00" y="294.00" width="24.20" height="24.20" fill="rgb(234,157,157)"/>
<rect x="232.00" y="294.00" width="24.20" height="24.20" fill="rgb(229,114,114)"/>
<rect x="256.00" y="294.00" width="24.20" height="24.20" fill="rgb(49,130,189)"/>
<rect x="40" y="78" width="240" height="240" fill="none" stroke="#334155" stroke-width="1"/>
<text x="370" y="66" class="title">AD mean</text>
<rect x="370.00" y="78.00" width="24.20" height="24.20" fill="rgb(49,130,189)"/>
<rect x="394.00" y="78.00" width="24.20" height="24.20" fill="rgb(239,197,197)"/>
<rect x="418.00" y="78.00" width="24.20" height="24.20" fill="rgb(176,204,225)"/>
<rect x="442.00" y="78.00" width="24.20" height="24.20" fill="rgb(217,228,237)"/>
<rect x="466.00" y="78.00" width="24.20" height="24.20" fill="rgb(197,217,231)"/>
<rect x="490.00" y="78.00" width="24.20" height="24.20" fill="rgb(229,117,117)"/>
<rect x="514.00" y="78.00" width="24.20" height="24.20" fill="rgb(236,177,177)"/>
<rect x="538.00" y="78.00" width="24.20" height="24.20" fill="rgb(194,215,230)"/>
<rect x="562.00" y="78.00" width="24.20" height="24.20" fill="rgb(198,217,231)"/>
<rect x="586.00" y="78.00" width="24.20" height="24.20" fill="rgb(175,204,225)"/>
<rect x="370.00" y="102.00" width="24.20" height="24.20" fill="rgb(239,197,197)"/>
<rect x="394.00" y="102.00" width="24.20" height="24.20" fill="rgb(49,130,189)"/>
<rect x="418.00" y="102.00" width="24.20" height="24.20" fill="rgb(172,202,224)"/>
<rect x="442.00" y="102.00" width="24.20" height="24.20" fill="rgb(180,206,226)"/>
<rect x="466.00" y="102.00" width="24.20" height="24.20" fill="rgb(231,236,241)"/>
<rect x="490.00" y="102.00" width="24.20" height="24.20" fill="rgb(241,214,214)"/>
<rect x="514.00" y="102.00" width="24.20" height="24.20" fill="rgb(227,99,99)"/>
<rect x="538.00" y="102.00" width="24.20" height="24.20" fill="rgb(203,220,233)"/>
<rect x="562.00" y="102.00" width="24.20" height="24.20" fill="rgb(145,186,216)"/>
<rect x="586.00" y="102.00" width="24.20" height="24.20" fill="rgb(146,187,216)"/>
<rect x="370.00" y="126.00" width="24.20" height="24.20" fill="rgb(176,204,225)"/>
<rect x="394.00" y="126.00" width="24.20" height="24.20" fill="rgb(172,202,224)"/>
<rect x="418.00" y="126.00" width="24.20" height="24.20" fill="rgb(49,130,189)"/>
<rect x="442.00" y="126.00" width="24.20" height="24.20" fill="rgb(222,60,60)"/>
<rect x="466.00" y="126.00" width="24.20" height="24.20" fill="rgb(226,88,88)"/>
<rect x="490.00" y="126.00" width="24.20" height="24.20" fill="rgb(202,220,232)"/>
<rect x="514.00" y="126.00" width="24.20" height="24.20" fill="rgb(200,218,232)"/>
<rect x="538.00" y="126.00" width="24.20" height="24.20" fill="rgb(233,153,153)"/>
<rect x="562.00" y="126.00" width="24.20" height="24.20" fill="rgb(226,87,87)"/>
<rect x="586.00" y="126.00" width="24.20" height="24.20" fill="rgb(225,86,86)"/>
<rect x="370.00" y="150.00" width="24.20" height="24.20" fill="rgb(217,228,237)"/>
<rect x="394.00" y="150.00" width="24.20" height="24.20" fill="rgb(180,206,226)"/>
<rect x="418.00" y="150.00" width="24.20" height="24.20" fill="rgb(222,60,60)"/>
<rect x="442.00" y="150.00" width="24.20" height="24.20" fill="rgb(49,130,189)"/>
<rect x="466.00" y="150.00" width="24.20" height="24.20" fill="rgb(228,112,112)"/>
<rect x="490.00" y="150.00" width="24.20" height="24.20" fill="rgb(168,199,223)"/>
<rect x="514.00" y="150.00" width="24.20" height="24.20" fill="rgb(157,193,220)"/>
<rect x="538.00" y="150.00" width="24.20" height="24.20" fill="rgb(226,91,91)"/>
<rect x="562.00" y="150.00" width="24.20" height="24.20" fill="rgb(230,123,123)"/>
<rect x="586.00" y="150.00" width="24.20" height="24.20" fill="rgb(225,79,79)"/>
<rect x="370.00" y="174.00" width="24.20" height="24.20" fill="rgb(197,217,231)"/>
<rect x="394.00" y="174.00" width="24.20" height="24.20" fill="rgb(231,236,241)"/>
<rect x="418.00" y="174.00" width="24.20" height="24.20" fill="rgb(226,88,88)"/>
<rect x="442.00" y="174.00" width="24.20" height="24.20" fill="rgb(228,112,112)"/>
<rect x="466.00" y="174.00" width="24.20" height="24.20" fill="rgb(49,130,189)"/>
<rect x="490.00" y="174.00" width="24.20" height="24.20" fill="rgb(220,230,237)"/>
<rect x="514.00" y="174.00" width="24.20" height="24.20" fill="rgb(129,177,212)"/>
<rect x="538.00" y="174.00" width="24.20" height="24.20" fill="rgb(222,61,61)"/>
<rect x="562.00" y="174.00" width="24.20" height="24.20" fill="rgb(225,82,82)"/>
<rect x="586.00" y="174.00" width="24.20" height="24.20" fill="rgb(225,84,84)"/>
<rect x="370.00" y="198.00" width="24.20" height="24.20" fill="rgb(229,117,117)"/>
<rect x="394.00" y="198.00" width="24.20" height="24.20" fill="rgb(241,214,214)"/>
<rect x="418.00" y="198.00" width="24.20" height="24.20" fill="rgb(202,220,232)"/>
<rect x="442.00" y="198.00" width="24.20" height="24.20" fill="rgb(168,199,223)"/>
<rect x="466.00" y="198.00" width="24.20" height="24.20" fill="rgb(220,230,237)"/>
<rect x="490.00" y="198.00" width="24.20" height="24.20" fill="rgb(49,130,189)"/>
<rect x="514.00" y="198.00" width="24.20" height="24.20" fill="rgb(231,134,134)"/>
<rect x="538.00" y="198.00" width="24.20" height="24.20" fill="rgb(191,213,229)"/>
<rect x="562.00" y="198.00" width="24.20" height="24.20" fill="rgb(126,175,211)"/>
<rect x="586.00" y="198.00" width="24.20" height="24.20" fill="rgb(149,188,217)"/>
<rect x="370.00" y="222.00" width="24.20" height="24.20" fill="rgb(236,177,177)"/>
<rect x="394.00" y="222.00" width="24.20" height="24.20" fill="rgb(227,99,99)"/>
<rect x="418.00" y="222.00" width="24.20" height="24.20" fill="rgb(200,218,232)"/>
<rect x="442.00" y="222.00" width="24.20" height="24.20" fill="rgb(157,193,220)"/>
<rect x="466.00" y="222.00" width="24.20" height="24.20" fill="rgb(129,177,212)"/>
<rect x="490.00" y="222.00" width="24.20" height="24.20" fill="rgb(231,134,134)"/>
<rect x="514.00" y="222.00" width="24.20" height="24.20" fill="rgb(49,130,189)"/>
<rect x="538.00" y="222.00" width="24.20" height="24.20" fill="rgb(161,196,221)"/>
<rect x="562.00" y="222.00" width="24.20" height="24.20" fill="rgb(122,172,209)"/>
<rect x="586.00" y="222.00" width="24.20" height="24.20" fill="rgb(157,193,219)"/>
<rect x="370.00" y="246.00" width="24.20" height="24.20" fill="rgb(194,215,230)"/>
<rect x="394.00" y="246.00" width="24.20" height="24.20" fill="rgb(203,220,233)"/>
<rect x="418.00" y="246.00" width="24.20" height="24.20" fill="rgb(233,153,153)"/>
<rect x="442.00" y="246.00" width="24.20" height="24.20" fill="rgb(226,91,91)"/>
<rect x="466.00" y="246.00" width="24.20" height="24.20" fill="rgb(222,61,61)"/>
<rect x="490.00" y="246.00" width="24.20" height="24.20" fill="rgb(191,213,229)"/>
<rect x="514.00" y="246.00" width="24.20" height="24.20" fill="rgb(161,196,221)"/>
<rect x="538.00" y="246.00" width="24.20" height="24.20" fill="rgb(49,130,189)"/>
<rect x="562.00" y="246.00" width="24.20" height="24.20" fill="rgb(235,162,162)"/>
<rect x="586.00" y="246.00" width="24.20" height="24.20" fill="rgb(232,142,142)"/>
<rect x="370.00" y="270.00" width="24.20" height="24.20" fill="rgb(198,217,231)"/>
<rect x="394.00" y="270.00" width="24.20" height="24.20" fill="rgb(145,186,216)"/>
<rect x="418.00" y="270.00" width="24.20" height="24.20" fill="rgb(226,87,87)"/>
<rect x="442.00" y="270.00" width="24.20" height="24.20" fill="rgb(230,123,123)"/>
<rect x="466.00" y="270.00" width="24.20" height="24.20" fill="rgb(225,82,82)"/>
<rect x="490.00" y="270.00" width="24.20" height="24.20" fill="rgb(126,175,211)"/>
<rect x="514.00" y="270.00" width="24.20" height="24.20" fill="rgb(122,172,209)"/>
<rect x="538.00" y="270.00" width="24.20" height="24.20" fill="rgb(235,162,162)"/>
<rect x="562.00" y="270.00" width="24.20" height="24.20" fill="rgb(49,130,189)"/>
<rect x="586.00" y="270.00" width="24.20" height="24.20" fill="rgb(229,117,117)"/>
<rect x="370.00" y="294.00" width="24.20" height="24.20" fill="rgb(175,204,225)"/>
<rect x="394.00" y="294.00" width="24.20" height="24.20" fill="rgb(146,187,216)"/>
<rect x="418.00" y="294.00" width="24.20" height="24.20" fill="rgb(225,86,86)"/>
<rect x="442.00" y="294.00" width="24.20" height="24.20" fill="rgb(225,79,79)"/>
<rect x="466.00" y="294.00" width="24.20" height="24.20" fill="rgb(225,84,84)"/>
<rect x="490.00" y="294.00" width="24.20" height="24.20" fill="rgb(149,188,217)"/>
<rect x="514.00" y="294.00" width="24.20" height="24.20" fill="rgb(157,193,219)"/>
<rect x="538.00" y="294.00" width="24.20" height="24.20" fill="rgb(232,142,142)"/>
<rect x="562.00" y="294.00" width="24.20" height="24.20" fill="rgb(229,117,117)"/>
<rect x="586.00" y="294.00" width="24.20" height="24.20" fill="rgb(49,130,189)"/>
<rect x="370" y="78" width="240" height="240" fill="none" stroke="#334155" stroke-width="1"/>
<text x="700" y="66" class="title">AD - Control</text>
<rect x="700.00" y="78.00" width="24.20" height="24.20" fill="rgb(245,245,245)"/>
<rect x="724.00" y="78.00" width="24.20" height="24.20" fill="rgb(237,240,242)"/>
<rect x="748.00" y="78.00" width="24.20" height="24.20" fill="rgb(97,158,202)"/>
<rect x="772.00" y="78.00" width="24.20" height="24.20" fill="rgb(151,190,218)"/>
<rect x="796.00" y="78.00" width="24.20" height="24.20" fill="rgb(115,169,208)"/>
<rect x="820.00" y="78.00" width="24.20" height="24.20" fill="rgb(242,227,227)"/>
<rect x="844.00" y="78.00" width="24.20" height="24.20" fill="rgb(224,233,239)"/>
<rect x="868.00" y="78.00" width="24.20" height="24.20" fill="rgb(134,180,213)"/>
<rect x="892.00" y="78.00" width="24.20" height="24.20" fill="rgb(105,163,205)"/>
<rect x="916.00" y="78.00" width="24.20" height="24.20" fill="rgb(98,158,203)"/>
<rect x="700.00" y="102.00" width="24.20" height="24.20" fill="rgb(237,240,242)"/>
<rect x="724.00" y="102.00" width="24.20" height="24.20" fill="rgb(245,245,245)"/>
<rect x="748.00" y="102.00" width="24.20" height="24.20" fill="rgb(93,156,201)"/>
<rect x="772.00" y="102.00" width="24.20" height="24.20" fill="rgb(138,182,214)"/>
<rect x="796.00" y="102.00" width="24.20" height="24.20" fill="rgb(196,216,231)"/>
<rect x="820.00" y="102.00" width="24.20" height="24.20" fill="rgb(167,199,222)"/>
<rect x="844.00" y="102.00" width="24.20" height="24.20" fill="rgb(234,239,242)"/>
<rect x="868.00" y="102.00" width="24.20" height="24.20" fill="rgb(157,193,219)"/>
<rect x="892.00" y="102.00" width="24.20" height="24.20" fill="rgb(101,161,204)"/>
<rect x="916.00" y="102.00" width="24.20" height="24.20" fill="rgb(100,160,203)"/>
<rect x="700.00" y="126.00" width="24.20" height="24.20" fill="rgb(97,158,202)"/>
<rect x="724.00" y="126.00" width="24.20" height="24.20" fill="rgb(93,156,201)"/>
<rect x="748.00" y="126.00" width="24.20" height="24.20" fill="rgb(245,245,245)"/>
<rect x="772.00" y="126.00" width="24.20" height="24.20" fill="rgb(235,169,169)"/>
<rect x="796.00" y="126.00" width="24.20" height="24.20" fill="rgb(243,233,233)"/>
<rect x="820.00" y="126.00" width="24.20" height="24.20" fill="rgb(164,197,222)"/>
<rect x="844.00" y="126.00" width="24.20" height="24.20" fill="rgb(179,206,226)"/>
<rect x="868.00" y="126.00" width="24.20" height="24.20" fill="rgb(238,188,188)"/>
<rect x="892.00" y="126.00" width="24.20" height="24.20" fill="rgb(242,223,223)"/>
<rect x="916.00" y="126.00" width="24.20" height="24.20" fill="rgb(238,189,189)"/>
<rect x="700.00" y="150.00" width="24.20" height="24.20" fill="rgb(151,190,218)"/>
<rect x="724.00" y="150.00" width="24.20" height="24.20" fill="rgb(138,182,214)"/>
<rect x="748.00" y="150.00" width="24.20" height="24.20" fill="rgb(235,169,169)"/>
<rect x="772.00" y="150.00" width="24.20" height="24.20" fill="rgb(245,245,245)"/>
<rect x="796.00" y="150.00" width="24.20" height="24.20" fill="rgb(242,243,244)"/>
<rect x="820.00" y="150.00" width="24.20" height="24.20" fill="rgb(140,183,215)"/>
<rect x="844.00" y="150.00" width="24.20" height="24.20" fill="rgb(147,188,217)"/>
<rect x="868.00" y="150.00" width="24.20" height="24.20" fill="rgb(243,235,235)"/>
<rect x="892.00" y="150.00" width="24.20" height="24.20" fill="rgb(220,230,237)"/>
<rect x="916.00" y="150.00" width="24.20" height="24.20" fill="rgb(239,203,203)"/>
<rect x="700.00" y="174.00" width="24.20" height="24.20" fill="rgb(115,169,208)"/>
<rect x="724.00" y="174.00" width="24.20" height="24.20" fill="rgb(196,216,231)"/>
<rect x="748.00" y="174.00" width="24.20" height="24.20" fill="rgb(243,233,233)"/>
<rect x="772.00" y="174.00" width="24.20" height="24.20" fill="rgb(242,243,244)"/>
<rect x="796.00" y="174.00" width="24.20" height="24.20" fill="rgb(245,245,245)"/>
<rect x="820.00" y="174.00" width="24.20" height="24.20" fill="rgb(178,206,226)"/>
<rect x="844.00" y="174.00" width="24.20" height="24.20" fill="rgb(131,178,212)"/>
<rect x="868.00" y="174.00" width="24.20" height="24.20" fill="rgb(235,166,166)"/>
<rect x="892.00" y="174.00" width="24.20" height="24.20" fill="rgb(241,218,218)"/>
<rect x="916.00" y="174.00" width="24.20" height="24.20" fill="rgb(243,234,234)"/>
<rect x="700.00" y="198.00" width="24.20" height="24.20" fill="rgb(242,227,227)"/>
<rect x="724.00" y="198.00" width="24.20" height="24.20" fill="rgb(167,199,222)"/>
<rect x="748.00" y="198.00" width="24.20" height="24.20" fill="rgb(164,197,222)"/>
<rect x="772.00" y="198.00" width="24.20" height="24.20" fill="rgb(140,183,215)"/>
<rect x="796.00" y="198.00" width="24.20" height="24.20" fill="rgb(178,206,226)"/>
<rect x="820.00" y="198.00" width="24.20" height="24.20" fill="rgb(245,245,245)"/>
<rect x="844.00" y="198.00" width="24.20" height="24.20" fill="rgb(243,236,236)"/>
<rect x="868.00" y="198.00" width="24.20" height="24.20" fill="rgb(163,197,221)"/>
<rect x="892.00" y="198.00" width="24.20" height="24.20" fill="rgb(107,164,205)"/>
<rect x="916.00" y="198.00" width="24.20" height="24.20" fill="rgb(52,132,190)"/>
<rect x="700.00" y="222.00" width="24.20" height="24.20" fill="rgb(224,233,239)"/>
<rect x="724.00" y="222.00" width="24.20" height="24.20" fill="rgb(234,239,242)"/>
<rect x="748.00" y="222.00" width="24.20" height="24.20" fill="rgb(179,206,226)"/>
<rect x="772.00" y="222.00" width="24.20" height="24.20" fill="rgb(147,188,217)"/>
<rect x="796.00" y="222.00" width="24.20" height="24.20" fill="rgb(131,178,212)"/>
<rect x="820.00" y="222.00" width="24.20" height="24.20" fill="rgb(243,236,236)"/>
<rect x="844.00" y="222.00" width="24.20" height="24.20" fill="rgb(245,245,245)"/>
<rect x="868.00" y="222.00" width="24.20" height="24.20" fill="rgb(49,130,189)"/>
<rect x="892.00" y="222.00" width="24.20" height="24.20" fill="rgb(116,169,208)"/>
<rect x="916.00" y="222.00" width="24.20" height="24.20" fill="rgb(113,168,207)"/>
<rect x="700.00" y="246.00" width="24.20" height="24.20" fill="rgb(134,180,213)"/>
<rect x="724.00" y="246.00" width="24.20" height="24.20" fill="rgb(157,193,219)"/>
<rect x="748.00" y="246.00" width="24.20" height="24.20" fill="rgb(238,188,188)"/>
<rect x="772.00" y="246.00" width="24.20" height="24.20" fill="rgb(243,235,235)"/>
<rect x="796.00" y="246.00" width="24.20" height="24.20" fill="rgb(235,166,166)"/>
<rect x="820.00" y="246.00" width="24.20" height="24.20" fill="rgb(163,197,221)"/>
<rect x="844.00" y="246.00" width="24.20" height="24.20" fill="rgb(49,130,189)"/>
<rect x="868.00" y="246.00" width="24.20" height="24.20" fill="rgb(245,245,245)"/>
<rect x="892.00" y="246.00" width="24.20" height="24.20" fill="rgb(222,231,238)"/>
<rect x="916.00" y="246.00" width="24.20" height="24.20" fill="rgb(243,234,234)"/>
<rect x="700.00" y="270.00" width="24.20" height="24.20" fill="rgb(105,163,205)"/>
<rect x="724.00" y="270.00" width="24.20" height="24.20" fill="rgb(101,161,204)"/>
<rect x="748.00" y="270.00" width="24.20" height="24.20" fill="rgb(242,223,223)"/>
<rect x="772.00" y="270.00" width="24.20" height="24.20" fill="rgb(220,230,237)"/>
<rect x="796.00" y="270.00" width="24.20" height="24.20" fill="rgb(241,218,218)"/>
<rect x="820.00" y="270.00" width="24.20" height="24.20" fill="rgb(107,164,205)"/>
<rect x="844.00" y="270.00" width="24.20" height="24.20" fill="rgb(116,169,208)"/>
<rect x="868.00" y="270.00" width="24.20" height="24.20" fill="rgb(222,231,238)"/>
<rect x="892.00" y="270.00" width="24.20" height="24.20" fill="rgb(245,245,245)"/>
<rect x="916.00" y="270.00" width="24.20" height="24.20" fill="rgb(243,243,244)"/>
<rect x="700.00" y="294.00" width="24.20" height="24.20" fill="rgb(98,158,203)"/>
<rect x="724.00" y="294.00" width="24.20" height="24.20" fill="rgb(100,160,203)"/>
<rect x="748.00" y="294.00" width="24.20" height="24.20" fill="rgb(238,189,189)"/>
<rect x="772.00" y="294.00" width="24.20" height="24.20" fill="rgb(239,203,203)"/>
<rect x="796.00" y="294.00" width="24.20" height="24.20" fill="rgb(243,234,234)"/>
<rect x="820.00" y="294.00" width="24.20" height="24.20" fill="rgb(52,132,190)"/>
<rect x="844.00" y="294.00" width="24.20" height="24.20" fill="rgb(113,168,207)"/>
<rect x="868.00" y="294.00" width="24.20" height="24.20" fill="rgb(243,234,234)"/>
<rect x="892.00" y="294.00" width="24.20" height="24.20" fill="rgb(243,243,244)"/>
<rect x="916.00" y="294.00" width="24.20" height="24.20" fill="rgb(245,245,245)"/>
<rect x="700" y="78" width="240" height="240" fill="none" stroke="#334155" stroke-width="1"/>
<text x="40" y="342" class="note">Synthetic data demo; values do not represent real participants.</text>
</svg>